<?xml version="1.0" encoding="UTF-8"?>
<svg xmlns="http://www.w3.org/2000/svg" version="1.1" width="336px" height="336px" style="shape-rendering:geometricPrecision; text-rendering:geometricPrecision; image-rendering:optimizeQuality; fill-rule:evenodd; clip-rule:evenodd" xmlns:xlink="http://www.w3.org/1999/xlink">
<g><path style="opacity:1" fill="currentColor" d="M 65.5,-0.5 C 67.1667,-0.5 68.8333,-0.5 70.5,-0.5C 70.1667,0.166667 69.8333,0.833333 69.5,1.5C 67.8333,1.5 66.1667,1.5 64.5,1.5C 63.1667,1.83333 61.8333,2.16667 60.5,2.5C 61.9133,1.06521 63.58,0.0652098 65.5,-0.5 Z"/></g>
<g><path style="opacity:1" fill="currentColor" d="M 70.5,-0.5 C 73.5,-0.5 76.5,-0.5 79.5,-0.5C 79.5,0.166667 79.5,0.833333 79.5,1.5C 76.1667,1.5 72.8333,1.5 69.5,1.5C 69.8333,0.833333 70.1667,0.166667 70.5,-0.5 Z"/></g>
<g><path style="opacity:1" fill="currentColor" d="M 79.5,-0.5 C 138.833,-0.5 198.167,-0.5 257.5,-0.5C 257.5,0.166667 257.5,0.833333 257.5,1.5C 198.167,1.5 138.833,1.5 79.5,1.5C 79.5,0.833333 79.5,0.166667 79.5,-0.5 Z"/></g>
<g><path style="opacity:1" fill="currentColor" d="M 257.5,-0.5 C 260.5,-0.5 263.5,-0.5 266.5,-0.5C 266.833,0.166667 267.167,0.833333 267.5,1.5C 264.167,1.5 260.833,1.5 257.5,1.5C 257.5,0.833333 257.5,0.166667 257.5,-0.5 Z"/></g>
<g><path style="opacity:1" fill="currentColor" d="M 266.5,-0.5 C 267.167,-0.5 267.833,-0.5 268.5,-0.5C 270.5,0.166667 272.5,0.833333 274.5,1.5C 272.833,1.5 271.167,1.5 269.5,1.5C 268.833,1.5 268.167,1.5 267.5,1.5C 267.167,0.833333 266.833,0.166667 266.5,-0.5 Z"/></g>
<g><path style="opacity:1" fill="currentColor" d="M 64.5,1.5 C 66.1667,1.5 67.8333,1.5 69.5,1.5C 72.8333,1.5 76.1667,1.5 79.5,1.5C 138.833,1.5 198.167,1.5 257.5,1.5C 260.833,1.5 264.167,1.5 267.5,1.5C 268.167,1.5 268.833,1.5 269.5,1.5C 270.635,3.21321 272.302,3.87988 274.5,3.5C 291.946,7.55312 306.613,16.2198 318.5,29.5C 320.344,33.8579 322.844,37.8579 326,41.5C 328.026,47.7579 330.526,53.7579 333.5,59.5C 333.5,60.8333 333.5,62.1667 333.5,63.5C 334.469,131.822 334.803,200.155 334.5,268.5C 333.391,272.832 332.391,277.165 331.5,281.5C 329.787,282.635 329.12,284.302 329.5,286.5C 326.967,291.447 324.633,296.447 322.5,301.5C 315.833,308.833 308.833,315.833 301.5,322.5C 294.799,325.289 288.133,328.289 281.5,331.5C 275.06,332.987 268.727,334.32 262.5,335.5C 197.5,335.5 132.5,335.5 67.5,335.5C 63.4985,333.411 59.1652,332.078 54.5,331.5C 54.3893,330.883 54.056,330.383 53.5,330C 51.5273,329.505 49.5273,329.338 47.5,329.5C 46.8333,328.833 46.1667,328.167 45.5,327.5C 42.758,324.579 39.4247,322.579 35.5,321.5C 34.8333,321.5 34.1667,321.5 33.5,321.5C 33.0269,320.094 32.0269,319.427 30.5,319.5C 28.4309,316.427 25.7642,314.094 22.5,312.5C 18.4404,307.402 14.6071,302.068 11,296.5C 8.51046,291.495 6.34379,286.495 4.5,281.5C 4.16667,280.167 3.83333,278.833 3.5,277.5C 2.83333,274.167 2.16667,270.833 1.5,267.5C 1.5,264.5 1.5,261.5 1.5,258.5C 1.5,197.5 1.5,136.5 1.5,75.5C 2.33575,66.9723 4.00242,58.6389 6.5,50.5C 13.8646,32.1346 26.198,18.1346 43.5,8.5C 47.1368,7.73651 50.4701,6.40318 53.5,4.5C 54.1667,4.5 54.8333,4.5 55.5,4.5C 58.1267,3.89513 60.7934,3.39513 63.5,3C 64.056,2.61742 64.3893,2.11742 64.5,1.5 Z M 76.5,17.5 C 140.843,17.207 205.176,17.5403 269.5,18.5C 273.285,20.4282 277.285,21.7616 281.5,22.5C 281.973,23.9063 282.973,24.573 284.5,24.5C 284.833,24.5 285.167,24.5 285.5,24.5C 286.911,26.539 288.911,27.539 291.5,27.5C 297.479,32.9625 303.146,38.6292 308.5,44.5C 312.58,52.0113 315.58,60.0113 317.5,68.5C 318.83,135.832 318.83,203.166 317.5,270.5C 317.5,270.833 317.5,271.167 317.5,271.5C 315.378,276.026 313.378,280.693 311.5,285.5C 311.5,285.833 311.5,286.167 311.5,286.5C 301.853,301.649 288.519,311.983 271.5,317.5C 271.167,317.5 270.833,317.5 270.5,317.5C 203.163,318.823 135.83,318.823 68.5,317.5C 59.7843,315.116 51.451,311.783 43.5,307.5C 38.8419,302.876 34.1752,298.209 29.5,293.5C 29.573,291.973 28.9063,290.973 27.5,290.5C 27.2503,288.326 26.2503,286.659 24.5,285.5C 22.6223,280.693 20.6223,276.026 18.5,271.5C 17.5399,206.51 17.2066,141.51 17.5,76.5C 18.5469,67.0255 21.2136,58.0255 25.5,49.5C 28.4401,45.5454 31.4401,41.5454 34.5,37.5C 35.8333,36.8333 36.8333,35.8333 37.5,34.5C 48.7442,24.5362 61.7442,18.8696 76.5,17.5 Z"/></g>
<g><path style="opacity:1" fill="currentColor" d="M 64.5,1.5 C 64.3893,2.11742 64.056,2.61742 63.5,3C 60.7934,3.39513 58.1267,3.89513 55.5,4.5C 55.8333,3.83333 56.1667,3.16667 56.5,2.5C 57.8333,2.5 59.1667,2.5 60.5,2.5C 61.8333,2.16667 63.1667,1.83333 64.5,1.5 Z"/></g>
<g><path style="opacity:1" fill="currentColor" d="M 269.5,1.5 C 271.167,1.5 272.833,1.5 274.5,1.5C 274.5,2.16667 274.5,2.83333 274.5,3.5C 272.302,3.87988 270.635,3.21321 269.5,1.5 Z"/></g>
<g><path style="opacity:1" fill="currentColor" d="M 56.5,2.5 C 56.1667,3.16667 55.8333,3.83333 55.5,4.5C 54.8333,4.5 54.1667,4.5 53.5,4.5C 52.8333,4.5 52.1667,4.5 51.5,4.5C 52.9303,3.46253 54.597,2.79586 56.5,2.5 Z"/></g>
<g><path style="opacity:1" fill="currentColor" d="M 274.5,1.5 C 288.807,4.6675 301.474,11.1675 312.5,21C 314.888,23.6287 316.888,26.462 318.5,29.5C 306.613,16.2198 291.946,7.55312 274.5,3.5C 274.5,2.83333 274.5,2.16667 274.5,1.5 Z"/></g>
<g><path style="opacity:1" fill="currentColor" d="M 51.5,4.5 C 52.1667,4.5 52.8333,4.5 53.5,4.5C 50.4701,6.40318 47.1368,7.73651 43.5,8.5C 45.8531,6.65671 48.5198,5.32338 51.5,4.5 Z"/></g>
<g><path style="opacity:1" fill="currentColor" d="M 76.5,17.5 C 76.5,17.1667 76.5,16.8333 76.5,16.5C 140.846,16.1956 205.179,16.5289 269.5,17.5C 269.5,17.8333 269.5,18.1667 269.5,18.5C 205.176,17.5403 140.843,17.207 76.5,17.5 Z"/></g>
<g><path style="opacity:1" fill="currentColor" d="M 269.5,18.5 C 269.5,18.1667 269.5,17.8333 269.5,17.5C 273.102,18.0453 276.602,19.0453 280,20.5C 281.03,20.8361 281.53,21.5028 281.5,22.5C 277.285,21.7616 273.285,20.4282 269.5,18.5 Z"/></g>
<g><path style="opacity:1" fill="currentColor" d="M 43.5,8.5 C 26.198,18.1346 13.8646,32.1346 6.5,50.5C 6.16667,50.5 5.83333,50.5 5.5,50.5C 12.2107,31.0561 24.8774,17.0561 43.5,8.5 Z"/></g>
<g><path style="opacity:1" fill="currentColor" d="M 76.5,16.5 C 76.5,16.8333 76.5,17.1667 76.5,17.5C 61.7442,18.8696 48.7442,24.5362 37.5,34.5C 39.0798,31.9115 41.0798,29.5782 43.5,27.5C 53.5839,20.9549 64.5839,17.2882 76.5,16.5 Z"/></g>
<g><path style="opacity:1" fill="currentColor" d="M 281.5,22.5 C 282.167,22.5 282.833,22.5 283.5,22.5C 283.833,23.1667 284.167,23.8333 284.5,24.5C 282.973,24.573 281.973,23.9063 281.5,22.5 Z"/></g>
<g><path style="opacity:1" fill="currentColor" d="M 283.5,22.5 C 286.721,22.8961 289.388,24.2295 291.5,26.5C 289.5,25.8333 287.5,25.1667 285.5,24.5C 285.167,24.5 284.833,24.5 284.5,24.5C 284.167,23.8333 283.833,23.1667 283.5,22.5 Z"/></g>
<g><path style="opacity:1" fill="currentColor" d="M 285.5,24.5 C 287.5,25.1667 289.5,25.8333 291.5,26.5C 291.5,26.8333 291.5,27.1667 291.5,27.5C 288.911,27.539 286.911,26.539 285.5,24.5 Z"/></g>
<g><path style="opacity:1" fill="currentColor" d="M 291.5,27.5 C 298.703,31.6071 304.37,37.2738 308.5,44.5C 303.146,38.6292 297.479,32.9625 291.5,27.5 Z"/></g>
<g><path style="opacity:1" fill="currentColor" d="M 318.5,29.5 C 321.88,32.7174 324.714,36.3841 327,40.5C 329.15,44.7772 331.15,49.1105 333,53.5C 333.495,55.4727 333.662,57.4727 333.5,59.5C 330.526,53.7579 328.026,47.7579 326,41.5C 322.844,37.8579 320.344,33.8579 318.5,29.5 Z"/></g>
<g><path style="opacity:1" fill="currentColor" d="M 37.5,34.5 C 36.8333,35.8333 35.8333,36.8333 34.5,37.5C 34.5,35.5 35.5,34.5 37.5,34.5 Z"/></g>
<g><path style="opacity:1" fill="currentColor" d="M 34.5,37.5 C 31.4401,41.5454 28.4401,45.5454 25.5,49.5C 26.5884,43.9589 29.5884,39.9589 34.5,37.5 Z"/></g>
<g><path style="opacity:1" fill="currentColor" d="M 308.5,44.5 C 311.224,46.927 313.224,49.927 314.5,53.5C 317.198,59.2041 318.865,65.2041 319.5,71.5C 318.833,70.5 318.167,69.5 317.5,68.5C 315.58,60.0113 312.58,52.0113 308.5,44.5 Z"/></g>
<g><path style="opacity:1" fill="currentColor" d="M 5.5,50.5 C 5.24133,53.2718 4.24133,55.6051 2.5,57.5C 2.75867,54.7282 3.75867,52.3949 5.5,50.5 Z"/></g>
<g><path style="opacity:1" fill="currentColor" d="M 99.5,57.5 C 104.032,57.1818 108.366,57.5151 112.5,58.5C 105.457,58.2803 98.4567,58.6136 91.5,59.5C 91.6107,58.8826 91.944,58.3826 92.5,58C 94.8098,57.5034 97.1432,57.3367 99.5,57.5 Z"/></g>
<g><path style="opacity:1" fill="currentColor" d="M 99.5,57.5 C 101.641,56.8367 103.975,56.5034 106.5,56.5C 110.761,56.4109 114.761,57.0776 118.5,58.5C 116.5,58.5 114.5,58.5 112.5,58.5C 108.366,57.5151 104.032,57.1818 99.5,57.5 Z"/></g>
<g><path style="opacity:1" fill="currentColor" d="M 234.5,57.5 C 230.298,57.1832 226.298,57.5166 222.5,58.5C 219.763,58.4013 217.096,58.7347 214.5,59.5C 214.611,58.8826 214.944,58.3826 215.5,58C 221.962,56.4561 228.295,56.2895 234.5,57.5 Z"/></g>
<g><path style="opacity:1" fill="currentColor" d="M 222.5,58.5 C 228.176,58.3339 233.843,58.5006 239.5,59C 240.416,59.2784 241.082,59.7784 241.5,60.5C 232.5,59.1667 223.5,59.1667 214.5,60.5C 214.5,60.1667 214.5,59.8333 214.5,59.5C 217.096,58.7347 219.763,58.4013 222.5,58.5 Z"/></g>
<g><path style="opacity:1" fill="currentColor" d="M 112.5,58.5 C 114.5,58.5 116.5,58.5 118.5,58.5C 129.119,62.7585 138.119,69.4252 145.5,78.5C 146.01,81.0857 147.01,83.419 148.5,85.5C 150.638,90.4037 152.305,95.4037 153.5,100.5C 153.472,105.862 153.806,111.195 154.5,116.5C 149.167,116.5 143.833,116.5 138.5,116.5C 138.656,112.236 137.989,108.236 136.5,104.5C 136.59,101.848 135.924,99.5145 134.5,97.5C 134.241,94.7282 133.241,92.3949 131.5,90.5C 128.585,82.2443 122.918,77.2443 114.5,75.5C 104.685,73.4648 95.3519,74.9648 86.5,80C 83.5532,82.4356 81.2199,85.2689 79.5,88.5C 77.7202,89.9899 77.0535,91.9899 77.5,94.5C 76.5655,95.5676 76.2322,96.901 76.5,98.5C 75.3475,104.319 75.1808,110.319 76,116.5C 76.9344,117.858 77.7677,119.192 78.5,120.5C 79.3268,124.319 81.3268,127.319 84.5,129.5C 84.7376,131.404 85.7376,132.738 87.5,133.5C 91.8333,141.167 97.8333,147.167 105.5,151.5C 105.414,152.496 105.748,153.329 106.5,154C 108.405,155.421 110.405,156.588 112.5,157.5C 113.174,159.024 114.174,160.358 115.5,161.5C 117.985,163.491 120.652,165.157 123.5,166.5C 123.414,167.496 123.748,168.329 124.5,169C 127.397,171.41 130.397,173.577 133.5,175.5C 133.5,177.5 134.5,178.5 136.5,178.5C 136.5,180.5 137.5,181.5 139.5,181.5C 141.706,185.555 144.206,189.555 147,193.5C 148.039,194.71 149.206,195.71 150.5,196.5C 151.705,201.896 153.705,206.896 156.5,211.5C 157.199,217.653 157.865,223.819 158.5,230C 158.236,234.042 157.57,237.875 156.5,241.5C 155.686,243.631 155.186,245.964 155,248.5C 152.575,251.928 150.575,255.594 149,259.5C 144.917,263.753 140.751,267.753 136.5,271.5C 134.784,271.629 133.117,271.962 131.5,272.5C 129.973,272.427 128.973,273.094 128.5,274.5C 127.292,275.234 125.959,275.567 124.5,275.5C 122.517,275.157 121.183,275.824 120.5,277.5C 113.5,277.5 106.5,277.5 99.5,277.5C 97.139,277.326 94.8056,276.993 92.5,276.5C 88.2171,274.592 83.8837,272.592 79.5,270.5C 78.0892,268.086 76.0892,266.419 73.5,265.5C 73.5,263.5 72.5,262.5 70.5,262.5C 66.2592,255.759 62.5926,248.759 59.5,241.5C 59.0104,238.345 58.3438,235.345 57.5,232.5C 57.5,227.5 57.5,222.5 57.5,217.5C 62.8333,217.5 68.1667,217.5 73.5,217.5C 74.0063,222.654 74.673,227.654 75.5,232.5C 76.0818,235.313 77.0818,237.98 78.5,240.5C 78.8333,241.833 79.1667,243.167 79.5,244.5C 79.427,246.027 80.0937,247.027 81.5,247.5C 84.8647,254.207 90.198,258.207 97.5,259.5C 97.6107,260.117 97.944,260.617 98.5,261C 104.349,261.818 110.015,261.652 115.5,260.5C 118.811,260.117 121.811,259.117 124.5,257.5C 127.198,257.155 129.198,255.822 130.5,253.5C 131.496,253.586 132.329,253.252 133,252.5C 141.959,238.247 142.792,223.413 135.5,208C 133.691,204.371 131.358,201.204 128.5,198.5C 126.204,193.238 122.537,189.238 117.5,186.5C 114.789,182.788 111.456,179.788 107.5,177.5C 104.129,174.129 100.463,171.129 96.5,168.5C 94.7607,165.757 92.4274,163.757 89.5,162.5C 84.5612,156.965 79.3945,151.632 74,146.5C 69.0318,140.208 64.8651,133.541 61.5,126.5C 61.5,125.833 61.5,125.167 61.5,124.5C 61.0372,121.67 60.3705,119.003 59.5,116.5C 55.8842,101.159 58.7175,87.1586 68,74.5C 71.4839,70.1689 75.6505,66.8356 80.5,64.5C 83.9466,63.917 86.9466,62.5837 89.5,60.5C 90.1667,60.5 90.5,60.1667 90.5,59.5C 90.8333,59.5 91.1667,59.5 91.5,59.5C 98.4567,58.6136 105.457,58.2803 112.5,58.5 Z"/></g>
<g><path style="opacity:1" fill="currentColor" d="M 214.5,59.5 C 214.5,59.8333 214.5,60.1667 214.5,60.5C 209.345,61.6436 204.345,63.3103 199.5,65.5C 203.69,61.6845 208.69,59.6845 214.5,59.5 Z"/></g>
<g><path style="opacity:1" fill="currentColor" d="M 241.5,60.5 C 242.873,60.3433 244.207,60.51 245.5,61C 254.484,65.157 262.151,70.9904 268.5,78.5C 268.285,80.1788 268.952,81.1788 270.5,81.5C 270.584,84.3274 271.25,86.994 272.5,89.5C 272.966,93.8862 274.299,97.8862 276.5,101.5C 277.487,106.305 277.821,111.305 277.5,116.5C 272.167,116.5 266.833,116.5 261.5,116.5C 261.192,112.64 260.525,108.974 259.5,105.5C 259.634,103.708 259.301,102.042 258.5,100.5C 258.88,98.302 258.213,96.6354 256.5,95.5C 255.048,89.3975 251.715,84.7308 246.5,81.5C 245.341,79.7497 243.674,78.7497 241.5,78.5C 240.01,76.7202 238.01,76.0535 235.5,76.5C 216.214,71.7845 203.548,79.1179 197.5,98.5C 196.172,144.173 196.172,189.84 197.5,235.5C 197.338,237.527 197.505,239.527 198,241.5C 198.383,242.056 198.883,242.389 199.5,242.5C 203.331,251.665 209.998,257.665 219.5,260.5C 229.851,262.769 239.517,260.936 248.5,255C 251.2,253.143 252.866,250.643 253.5,247.5C 254.974,246.564 255.974,245.23 256.5,243.5C 258.065,241.491 259.065,239.157 259.5,236.5C 259.232,234.901 259.566,233.568 260.5,232.5C 261.266,227.637 261.932,222.637 262.5,217.5C 263.167,217.5 263.833,217.5 264.5,217.5C 269.167,217.5 273.833,217.5 278.5,217.5C 279.118,226.748 277.951,235.748 275,244.5C 271.658,252.075 267.491,259.075 262.5,265.5C 255.429,269.615 248.429,273.615 241.5,277.5C 238.5,277.5 235.5,277.5 232.5,277.5C 225.798,277.664 219.131,277.331 212.5,276.5C 210.152,274.903 207.486,273.903 204.5,273.5C 203.341,271.75 201.674,270.75 199.5,270.5C 198.415,268.413 196.749,267.08 194.5,266.5C 189.621,261.62 185.954,255.954 183.5,249.5C 183.923,247.219 183.256,245.552 181.5,244.5C 181.125,242.302 180.458,240.302 179.5,238.5C 179.5,236.167 179.5,233.833 179.5,231.5C 179.225,186.156 179.559,140.823 180.5,95.5C 181.219,93.2362 181.552,90.9029 181.5,88.5C 183.598,84.9974 185.765,81.3308 188,77.5C 191.364,72.9715 195.197,68.9715 199.5,65.5C 204.345,63.3103 209.345,61.6436 214.5,60.5C 223.5,59.1667 232.5,59.1667 241.5,60.5 Z"/></g>
<g><path style="opacity:1" fill="currentColor" d="M 25.5,49.5 C 21.2136,58.0255 18.5469,67.0255 17.5,76.5C 17.1667,76.5 16.8333,76.5 16.5,76.5C 16.1739,68.7888 17.6739,61.4555 21,54.5C 22.0491,52.3825 23.5491,50.7158 25.5,49.5 Z"/></g>
<g><path style="opacity:1" fill="currentColor" d="M 90.5,59.5 C 90.5,60.1667 90.1667,60.5 89.5,60.5C 87.1667,61.1667 84.8333,61.8333 82.5,62.5C 84.6174,60.3455 87.284,59.3455 90.5,59.5 Z"/></g>
<g><path style="opacity:1" fill="currentColor" d="M 89.5,60.5 C 86.9466,62.5837 83.9466,63.917 80.5,64.5C 80.8333,63.8333 81.1667,63.1667 81.5,62.5C 81.8333,62.5 82.1667,62.5 82.5,62.5C 84.8333,61.8333 87.1667,61.1667 89.5,60.5 Z"/></g>
<g><path style="opacity:1" fill="currentColor" d="M 118.5,58.5 C 130.593,61.0414 139.593,67.708 145.5,78.5C 138.119,69.4252 129.119,62.7585 118.5,58.5 Z"/></g>
<g><path style="opacity:1" fill="currentColor" d="M 222.5,58.5 C 226.298,57.5166 230.298,57.1832 234.5,57.5C 246.911,58.956 257.411,64.2893 266,73.5C 267.094,75.0779 267.928,76.7446 268.5,78.5C 262.151,70.9904 254.484,65.157 245.5,61C 244.207,60.51 242.873,60.3433 241.5,60.5C 241.082,59.7784 240.416,59.2784 239.5,59C 233.843,58.5006 228.176,58.3339 222.5,58.5 Z"/></g>
<g><path style="opacity:1" fill="currentColor" d="M 2.5,59.5 C 2.33859,62.6799 1.33859,65.3465 -0.5,67.5C -0.5,67.1667 -0.5,66.8333 -0.5,66.5C -0.0195479,63.9217 0.980452,61.5884 2.5,59.5 Z"/></g>
<g><path style="opacity:1" fill="currentColor" d="M 333.5,59.5 C 334.167,60.1667 334.833,60.8333 335.5,61.5C 335.5,64.5 335.5,67.5 335.5,70.5C 334.833,68.1667 334.167,65.8333 333.5,63.5C 333.5,62.1667 333.5,60.8333 333.5,59.5 Z"/></g>
<g><path style="opacity:1" fill="currentColor" d="M 199.5,65.5 C 195.197,68.9715 191.364,72.9715 188,77.5C 185.765,81.3308 183.598,84.9974 181.5,88.5C 184.546,78.4617 190.546,70.795 199.5,65.5 Z"/></g>
<g><path style="opacity:1" fill="currentColor" d="M 5.5,50.5 C 5.83333,50.5 6.16667,50.5 6.5,50.5C 4.00242,58.6389 2.33575,66.9723 1.5,75.5C 0.833333,76.1667 0.166667,76.8333 -0.5,77.5C -0.5,74.1667 -0.5,70.8333 -0.5,67.5C 1.33859,65.3465 2.33859,62.6799 2.5,59.5C 2.5,58.8333 2.5,58.1667 2.5,57.5C 4.24133,55.6051 5.24133,53.2718 5.5,50.5 Z"/></g>
<g><path style="opacity:1" fill="currentColor" d="M 235.5,76.5 C 238.01,76.0535 240.01,76.7202 241.5,78.5C 239.214,78.405 237.214,77.7384 235.5,76.5 Z"/></g>
<g><path style="opacity:1" fill="currentColor" d="M 1.5,75.5 C 1.5,136.5 1.5,197.5 1.5,258.5C 0.833333,258.5 0.166667,258.5 -0.5,258.5C -0.5,198.167 -0.5,137.833 -0.5,77.5C 0.166667,76.8333 0.833333,76.1667 1.5,75.5 Z"/></g>
<g><path style="opacity:1" fill="currentColor" d="M 333.5,63.5 C 334.167,65.8333 334.833,68.1667 335.5,70.5C 335.5,136.5 335.5,202.5 335.5,268.5C 335.167,268.5 334.833,268.5 334.5,268.5C 334.803,200.155 334.469,131.822 333.5,63.5 Z"/></g>
<g><path style="opacity:1" fill="currentColor" d="M 241.5,78.5 C 243.674,78.7497 245.341,79.7497 246.5,81.5C 244.326,81.2503 242.659,80.2503 241.5,78.5 Z"/></g>
<g><path style="opacity:1" fill="currentColor" d="M 317.5,68.5 C 318.167,69.5 318.833,70.5 319.5,71.5C 319.5,74.1667 319.5,76.8333 319.5,79.5C 319.819,142.856 319.486,206.189 318.5,269.5C 318.5,270.167 318.167,270.5 317.5,270.5C 318.83,203.166 318.83,135.832 317.5,68.5 Z"/></g>
<g><path style="opacity:1" fill="currentColor" d="M 16.5,79.5 C 16.1848,142.852 16.5181,206.185 17.5,269.5C 16.7784,269.082 16.2784,268.416 16,267.5C 15.168,204.665 15.3347,141.999 16.5,79.5 Z"/></g>
<g><path style="opacity:1" fill="currentColor" d="M 16.5,76.5 C 16.8333,76.5 17.1667,76.5 17.5,76.5C 17.2066,141.51 17.5399,206.51 18.5,271.5C 17.6618,271.158 17.3284,270.492 17.5,269.5C 16.5181,206.185 16.1848,142.852 16.5,79.5C 16.5,78.5 16.5,77.5 16.5,76.5 Z"/></g>
<g><path style="opacity:1" fill="currentColor" d="M 109.5,75.5 C 111.167,75.5 112.833,75.5 114.5,75.5C 122.918,77.2443 128.585,82.2443 131.5,90.5C 128.739,85.9036 125.073,82.0703 120.5,79C 116.628,78.0965 112.961,76.9298 109.5,75.5 Z"/></g>
<g><path style="opacity:1" fill="currentColor" d="M 268.5,78.5 C 269.401,79.2905 270.068,80.2905 270.5,81.5C 268.952,81.1788 268.285,80.1788 268.5,78.5 Z"/></g>
<g><path style="opacity:1" fill="currentColor" d="M 319.5,79.5 C 320.665,141.665 320.832,203.999 320,266.5C 319.768,267.737 319.268,268.737 318.5,269.5C 319.486,206.189 319.819,142.856 319.5,79.5 Z"/></g>
<g><path style="opacity:1" fill="currentColor" d="M 114.5,75.5 C 112.833,75.5 111.167,75.5 109.5,75.5C 95.3606,74.7273 85.0272,80.3939 78.5,92.5C 78.8333,91.1667 79.1667,89.8333 79.5,88.5C 81.2199,85.2689 83.5532,82.4356 86.5,80C 95.3519,74.9648 104.685,73.4648 114.5,75.5 Z"/></g>
<g><path style="opacity:1" fill="currentColor" d="M 145.5,78.5 C 147.95,80.6291 149.617,83.2957 150.5,86.5C 149.833,86.1667 149.167,85.8333 148.5,85.5C 147.01,83.419 146.01,81.0857 145.5,78.5 Z"/></g>
<g><path style="opacity:1" fill="currentColor" d="M 246.5,81.5 C 251.715,84.7308 255.048,89.3975 256.5,95.5C 257.038,97.1172 257.371,98.7839 257.5,100.5C 254.634,93.7758 250.967,87.4425 246.5,81.5 Z"/></g>
<g><path style="opacity:1" fill="currentColor" d="M 79.5,88.5 C 79.1667,89.8333 78.8333,91.1667 78.5,92.5C 78.5,93.1667 78.5,93.8333 78.5,94.5C 78.1667,94.5 77.8333,94.5 77.5,94.5C 77.0535,91.9899 77.7202,89.9899 79.5,88.5 Z"/></g>
<g><path style="opacity:1" fill="currentColor" d="M 270.5,81.5 C 273.889,86.2533 275.889,91.5867 276.5,97.5C 275.462,94.6551 274.128,91.9884 272.5,89.5C 271.25,86.994 270.584,84.3274 270.5,81.5 Z"/></g>
<g><path style="opacity:1" fill="currentColor" d="M 148.5,85.5 C 149.167,85.8333 149.833,86.1667 150.5,86.5C 152.511,89.869 153.511,93.5357 153.5,97.5C 153.5,98.5 153.5,99.5 153.5,100.5C 152.305,95.4037 150.638,90.4037 148.5,85.5 Z"/></g>
<g><path style="opacity:1" fill="currentColor" d="M 181.5,88.5 C 181.552,90.9029 181.219,93.2362 180.5,95.5C 180.167,95.5 179.833,95.5 179.5,95.5C 179.721,92.9327 180.388,90.5994 181.5,88.5 Z"/></g>
<g><path style="opacity:1" fill="currentColor" d="M 272.5,89.5 C 274.128,91.9884 275.462,94.6551 276.5,97.5C 276.5,98.8333 276.5,100.167 276.5,101.5C 274.299,97.8862 272.966,93.8862 272.5,89.5 Z"/></g>
<g><path style="opacity:1" fill="currentColor" d="M 131.5,90.5 C 133.241,92.3949 134.241,94.7282 134.5,97.5C 132.552,95.6796 131.552,93.3462 131.5,90.5 Z"/></g>
<g><path style="opacity:1" fill="currentColor" d="M 256.5,95.5 C 258.213,96.6354 258.88,98.302 258.5,100.5C 258.167,100.5 257.833,100.5 257.5,100.5C 257.371,98.7839 257.038,97.1172 256.5,95.5 Z"/></g>
<g><path style="opacity:1" fill="currentColor" d="M 77.5,94.5 C 77.8333,94.5 78.1667,94.5 78.5,94.5C 77.318,101.817 77.318,109.15 78.5,116.5C 77.8826,116.389 77.3826,116.056 77,115.5C 76.5006,109.843 76.3339,104.176 76.5,98.5C 76.2322,96.901 76.5655,95.5676 77.5,94.5 Z"/></g>
<g><path style="opacity:1" fill="currentColor" d="M 134.5,97.5 C 135.924,99.5145 136.59,101.848 136.5,104.5C 135.833,103.833 135.167,103.167 134.5,102.5C 134.5,100.833 134.5,99.1667 134.5,97.5 Z"/></g>
<g><path style="opacity:1" fill="currentColor" d="M 81.5,62.5 C 81.1667,63.1667 80.8333,63.8333 80.5,64.5C 75.6505,66.8356 71.4839,70.1689 68,74.5C 58.7175,87.1586 55.8842,101.159 59.5,116.5C 59.5,117.833 59.5,119.167 59.5,120.5C 53.0573,99.3494 58.0573,81.1827 74.5,66C 76.5766,64.295 78.91,63.1283 81.5,62.5 Z"/></g>
<g><path style="opacity:1" fill="currentColor" d="M 134.5,102.5 C 135.167,103.167 135.833,103.833 136.5,104.5C 136.552,108.198 136.886,111.865 137.5,115.5C 136.883,115.389 136.383,115.056 136,114.5C 135.608,110.472 135.108,106.472 134.5,102.5 Z"/></g>
<g><path style="opacity:1" fill="currentColor" d="M 179.5,96.5 C 178.19,141.65 178.19,186.65 179.5,231.5C 179.5,233.833 179.5,236.167 179.5,238.5C 178.883,238.389 178.383,238.056 178,237.5C 177.333,191.167 177.333,144.833 178,98.5C 178.278,97.5842 178.778,96.9175 179.5,96.5 Z"/></g>
<g><path style="opacity:1" fill="currentColor" d="M 179.5,95.5 C 179.833,95.5 180.167,95.5 180.5,95.5C 179.559,140.823 179.225,186.156 179.5,231.5C 178.19,186.65 178.19,141.65 179.5,96.5C 179.5,96.1667 179.5,95.8333 179.5,95.5 Z"/></g>
<g><path style="opacity:1" fill="currentColor" d="M 235.5,76.5 C 216.656,73.6677 204.49,81.3343 199,99.5C 198.5,144.832 198.333,190.165 198.5,235.5C 198.167,235.5 197.833,235.5 197.5,235.5C 196.172,189.84 196.172,144.173 197.5,98.5C 203.548,79.1179 216.214,71.7845 235.5,76.5 Z"/></g>
<g><path style="opacity:1" fill="currentColor" d="M 76.5,98.5 C 76.3339,104.176 76.5006,109.843 77,115.5C 77.3826,116.056 77.8826,116.389 78.5,116.5C 78.5,116.833 78.5,117.167 78.5,117.5C 78.5,118.5 78.5,119.5 78.5,120.5C 77.7677,119.192 76.9344,117.858 76,116.5C 75.1808,110.319 75.3475,104.319 76.5,98.5 Z"/></g>
<g><path style="opacity:1" fill="currentColor" d="M 153.5,100.5 C 154.357,104.66 155.024,108.993 155.5,113.5C 155.48,114.726 155.147,115.726 154.5,116.5C 153.806,111.195 153.472,105.862 153.5,100.5 Z"/></g>
<g><path style="opacity:1" fill="currentColor" d="M 257.5,100.5 C 257.833,100.5 258.167,100.5 258.5,100.5C 259.301,102.042 259.634,103.708 259.5,105.5C 259.5,108.833 259.5,112.167 259.5,115.5C 258.275,110.71 257.608,105.71 257.5,100.5 Z"/></g>
<g><path style="opacity:1" fill="currentColor" d="M 153.5,97.5 C 154.222,97.9175 154.722,98.5842 155,99.5C 155.906,103.279 156.406,107.112 156.5,111C 156.467,113.61 155.8,115.777 154.5,117.5C 154.5,117.167 154.5,116.833 154.5,116.5C 155.147,115.726 155.48,114.726 155.5,113.5C 155.024,108.993 154.357,104.66 153.5,100.5C 153.5,99.5 153.5,98.5 153.5,97.5 Z"/></g>
<g><path style="opacity:1" fill="currentColor" d="M 276.5,97.5 C 277.222,97.9175 277.722,98.5842 278,99.5C 278.5,103.5 279,107.5 279.5,111.5C 279.639,113.883 278.972,115.883 277.5,117.5C 277.5,117.167 277.5,116.833 277.5,116.5C 277.821,111.305 277.487,106.305 276.5,101.5C 276.5,100.167 276.5,98.8333 276.5,97.5 Z"/></g>
<g><path style="opacity:1" fill="currentColor" d="M 136.5,104.5 C 137.989,108.236 138.656,112.236 138.5,116.5C 143.833,116.5 149.167,116.5 154.5,116.5C 154.5,116.833 154.5,117.167 154.5,117.5C 149.584,118.611 144.584,118.778 139.5,118C 138.244,117.583 137.577,116.75 137.5,115.5C 136.886,111.865 136.552,108.198 136.5,104.5 Z"/></g>
<g><path style="opacity:1" fill="currentColor" d="M 259.5,105.5 C 260.525,108.974 261.192,112.64 261.5,116.5C 266.833,116.5 272.167,116.5 277.5,116.5C 277.5,116.833 277.5,117.167 277.5,117.5C 272.584,118.611 267.584,118.778 262.5,118C 260.881,117.764 259.881,116.931 259.5,115.5C 259.5,112.167 259.5,108.833 259.5,105.5 Z"/></g>
<g><path style="opacity:1" fill="currentColor" d="M 78.5,117.5 C 80.4806,121.461 82.4806,125.461 84.5,129.5C 81.3268,127.319 79.3268,124.319 78.5,120.5C 78.5,119.5 78.5,118.5 78.5,117.5 Z"/></g>
<g><path style="opacity:1" fill="currentColor" d="M 59.5,116.5 C 60.3705,119.003 61.0372,121.67 61.5,124.5C 60.8333,124.167 60.1667,123.833 59.5,123.5C 59.5,122.5 59.5,121.5 59.5,120.5C 59.5,119.167 59.5,117.833 59.5,116.5 Z"/></g>
<g><path style="opacity:1" fill="currentColor" d="M 59.5,123.5 C 60.1667,123.833 60.8333,124.167 61.5,124.5C 61.5,125.167 61.5,125.833 61.5,126.5C 61.5,127.167 61.5,127.833 61.5,128.5C 60.0687,127.22 59.4021,125.553 59.5,123.5 Z"/></g>
<g><path style="opacity:1" fill="currentColor" d="M 84.5,129.5 C 86.2624,130.262 87.2624,131.596 87.5,133.5C 85.7376,132.738 84.7376,131.404 84.5,129.5 Z"/></g>
<g><path style="opacity:1" fill="currentColor" d="M 87.5,133.5 C 93.1667,139.833 99.1667,145.833 105.5,151.5C 97.8333,147.167 91.8333,141.167 87.5,133.5 Z"/></g>
<g><path style="opacity:1" fill="currentColor" d="M 61.5,126.5 C 64.8651,133.541 69.0318,140.208 74,146.5C 79.3945,151.632 84.5612,156.965 89.5,162.5C 76.9166,153.91 67.5833,142.577 61.5,128.5C 61.5,127.833 61.5,127.167 61.5,126.5 Z"/></g>
<g><path style="opacity:1" fill="currentColor" d="M 105.5,151.5 C 108.447,152.781 110.781,154.781 112.5,157.5C 110.405,156.588 108.405,155.421 106.5,154C 105.748,153.329 105.414,152.496 105.5,151.5 Z"/></g>
<g><path style="opacity:1" fill="currentColor" d="M 112.5,157.5 C 117.108,159.45 120.774,162.45 123.5,166.5C 120.652,165.157 117.985,163.491 115.5,161.5C 114.174,160.358 113.174,159.024 112.5,157.5 Z"/></g>
<g><path style="opacity:1" fill="currentColor" d="M 89.5,162.5 C 92.4274,163.757 94.7607,165.757 96.5,168.5C 93.5726,167.243 91.2393,165.243 89.5,162.5 Z"/></g>
<g><path style="opacity:1" fill="currentColor" d="M 96.5,168.5 C 100.463,171.129 104.129,174.129 107.5,177.5C 102.957,175.628 99.2901,172.628 96.5,168.5 Z"/></g>
<g><path style="opacity:1" fill="currentColor" d="M 123.5,166.5 C 127.456,168.788 130.789,171.788 133.5,175.5C 130.397,173.577 127.397,171.41 124.5,169C 123.748,168.329 123.414,167.496 123.5,166.5 Z"/></g>
<g><path style="opacity:1" fill="currentColor" d="M 133.5,175.5 C 134.833,176.167 135.833,177.167 136.5,178.5C 134.5,178.5 133.5,177.5 133.5,175.5 Z"/></g>
<g><path style="opacity:1" fill="currentColor" d="M 107.5,177.5 C 111.456,179.788 114.789,182.788 117.5,186.5C 113.518,184.183 110.185,181.183 107.5,177.5 Z"/></g>
<g><path style="opacity:1" fill="currentColor" d="M 136.5,178.5 C 137.833,179.167 138.833,180.167 139.5,181.5C 137.5,181.5 136.5,180.5 136.5,178.5 Z"/></g>
<g><path style="opacity:1" fill="currentColor" d="M 139.5,181.5 C 144.347,185.674 148.014,190.674 150.5,196.5C 149.206,195.71 148.039,194.71 147,193.5C 144.206,189.555 141.706,185.555 139.5,181.5 Z"/></g>
<g><path style="opacity:1" fill="currentColor" d="M 117.5,186.5 C 122.537,189.238 126.204,193.238 128.5,198.5C 124.843,194.541 121.176,190.541 117.5,186.5 Z"/></g>
<g><path style="opacity:1" fill="currentColor" d="M 150.5,196.5 C 153.851,200.882 155.851,205.882 156.5,211.5C 153.705,206.896 151.705,201.896 150.5,196.5 Z"/></g>
<g><path style="opacity:1" fill="currentColor" d="M 278.5,216.5 C 273.637,216.181 268.97,216.514 264.5,217.5C 263.833,217.5 263.167,217.5 262.5,217.5C 262.611,216.883 262.944,216.383 263.5,216C 268.684,215.184 273.684,215.35 278.5,216.5 Z"/></g>
<g><path style="opacity:1" fill="currentColor" d="M 75.5,226.5 C 75.5,228.5 75.5,230.5 75.5,232.5C 74.673,227.654 74.0063,222.654 73.5,217.5C 68.1667,217.5 62.8333,217.5 57.5,217.5C 57.5,222.5 57.5,227.5 57.5,232.5C 57.1667,232.5 56.8333,232.5 56.5,232.5C 55.8333,227.84 55.6666,223.174 56,218.5C 56.5,217.333 57.3333,216.5 58.5,216C 63.5544,215.219 68.5544,215.386 73.5,216.5C 74.1924,217.025 74.6924,217.692 75,218.5C 75.4974,221.146 75.6641,223.813 75.5,226.5 Z"/></g>
<g><path style="opacity:1" fill="currentColor" d="M 156.5,211.5 C 158.011,213.476 158.844,215.809 159,218.5C 159.787,226.881 159.454,235.214 158,243.5C 157.617,244.056 157.117,244.389 156.5,244.5C 156.5,243.5 156.5,242.5 156.5,241.5C 157.57,237.875 158.236,234.042 158.5,230C 157.865,223.819 157.199,217.653 156.5,211.5 Z"/></g>
<g><path style="opacity:1" fill="currentColor" d="M 262.5,217.5 C 261.932,222.637 261.266,227.637 260.5,232.5C 260.5,230.5 260.5,228.5 260.5,226.5C 260.336,223.813 260.503,221.146 261,218.5C 261.383,217.944 261.883,217.611 262.5,217.5 Z"/></g>
<g><path style="opacity:1" fill="currentColor" d="M 75.5,226.5 C 77.1296,230.911 78.1296,235.578 78.5,240.5C 77.0818,237.98 76.0818,235.313 75.5,232.5C 75.5,230.5 75.5,228.5 75.5,226.5 Z"/></g>
<g><path style="opacity:1" fill="currentColor" d="M 260.5,226.5 C 260.5,228.5 260.5,230.5 260.5,232.5C 259.566,233.568 259.232,234.901 259.5,236.5C 258.833,236.833 258.167,237.167 257.5,237.5C 257.976,233.583 258.976,229.916 260.5,226.5 Z"/></g>
<g><path style="opacity:1" fill="currentColor" d="M 56.5,232.5 C 56.8333,232.5 57.1667,232.5 57.5,232.5C 58.3438,235.345 59.0104,238.345 59.5,241.5C 57.1376,239.081 56.1376,236.081 56.5,232.5 Z"/></g>
<g><path style="opacity:1" fill="currentColor" d="M 197.5,235.5 C 197.833,235.5 198.167,235.5 198.5,235.5C 198.448,237.903 198.781,240.236 199.5,242.5C 198.883,242.389 198.383,242.056 198,241.5C 197.505,239.527 197.338,237.527 197.5,235.5 Z"/></g>
<g><path style="opacity:1" fill="currentColor" d="M 259.5,236.5 C 259.065,239.157 258.065,241.491 256.5,243.5C 256.5,242.833 256.5,242.167 256.5,241.5C 256.833,240.167 257.167,238.833 257.5,237.5C 258.167,237.167 258.833,236.833 259.5,236.5 Z"/></g>
<g><path style="opacity:1" fill="currentColor" d="M 78.5,240.5 C 80.2503,241.659 81.2503,243.326 81.5,245.5C 80.8333,245.167 80.1667,244.833 79.5,244.5C 79.1667,243.167 78.8333,241.833 78.5,240.5 Z"/></g>
<g><path style="opacity:1" fill="currentColor" d="M 179.5,238.5 C 180.458,240.302 181.125,242.302 181.5,244.5C 181.629,246.216 181.962,247.883 182.5,249.5C 181.883,249.389 181.383,249.056 181,248.5C 179.957,245.243 179.457,241.91 179.5,238.5 Z"/></g>
<g><path style="opacity:1" fill="currentColor" d="M 256.5,241.5 C 256.5,242.167 256.5,242.833 256.5,243.5C 255.974,245.23 254.974,246.564 253.5,247.5C 253.992,245.181 254.992,243.181 256.5,241.5 Z"/></g>
<g><path style="opacity:1" fill="currentColor" d="M 181.5,244.5 C 183.256,245.552 183.923,247.219 183.5,249.5C 183.167,249.5 182.833,249.5 182.5,249.5C 181.962,247.883 181.629,246.216 181.5,244.5 Z"/></g>
<g><path style="opacity:1" fill="currentColor" d="M 264.5,217.5 C 268.97,216.514 273.637,216.181 278.5,216.5C 279.117,216.611 279.617,216.944 280,217.5C 280.29,225.231 279.623,232.897 278,240.5C 275.398,246.465 272.732,252.465 270,258.5C 267.916,261.393 265.416,263.726 262.5,265.5C 267.491,259.075 271.658,252.075 275,244.5C 277.951,235.748 279.118,226.748 278.5,217.5C 273.833,217.5 269.167,217.5 264.5,217.5 Z"/></g>
<g><path style="opacity:1" fill="currentColor" d="M 79.5,244.5 C 80.1667,244.833 80.8333,245.167 81.5,245.5C 81.5,245.833 81.5,246.167 81.5,246.5C 81.5,246.833 81.5,247.167 81.5,247.5C 80.0937,247.027 79.427,246.027 79.5,244.5 Z"/></g>
<g><path style="opacity:1" fill="currentColor" d="M 128.5,198.5 C 131.358,201.204 133.691,204.371 135.5,208C 142.792,223.413 141.959,238.247 133,252.5C 132.329,253.252 131.496,253.586 130.5,253.5C 132.837,250.319 135.004,246.986 137,243.5C 139,234.167 139,224.833 137,215.5C 134.156,209.811 131.322,204.145 128.5,198.5 Z"/></g>
<g><path style="opacity:1" fill="currentColor" d="M 198.5,235.5 C 201.946,249.28 210.613,257.613 224.5,260.5C 222.833,260.5 221.167,260.5 219.5,260.5C 209.998,257.665 203.331,251.665 199.5,242.5C 198.781,240.236 198.448,237.903 198.5,235.5 Z"/></g>
<g><path style="opacity:1" fill="currentColor" d="M 156.5,241.5 C 156.5,242.5 156.5,243.5 156.5,244.5C 154.395,256.931 147.728,265.931 136.5,271.5C 140.751,267.753 144.917,263.753 149,259.5C 150.575,255.594 152.575,251.928 155,248.5C 155.186,245.964 155.686,243.631 156.5,241.5 Z"/></g>
<g><path style="opacity:1" fill="currentColor" d="M 182.5,249.5 C 182.833,249.5 183.167,249.5 183.5,249.5C 185.954,255.954 189.621,261.62 194.5,266.5C 193.761,266.631 193.094,266.464 192.5,266C 187.249,261.6 183.916,256.1 182.5,249.5 Z"/></g>
<g><path style="opacity:1" fill="currentColor" d="M 253.5,247.5 C 252.866,250.643 251.2,253.143 248.5,255C 239.517,260.936 229.851,262.769 219.5,260.5C 221.167,260.5 222.833,260.5 224.5,260.5C 236.534,260.952 246.2,256.619 253.5,247.5 Z"/></g>
<g><path style="opacity:1" fill="currentColor" d="M 130.5,253.5 C 129.198,255.822 127.198,257.155 124.5,257.5C 126.147,255.674 128.147,254.34 130.5,253.5 Z"/></g>
<g><path style="opacity:1" fill="currentColor" d="M 59.5,241.5 C 62.5926,248.759 66.2592,255.759 70.5,262.5C 64.4608,256.755 60.7941,249.755 59.5,241.5 Z"/></g>
<g><path style="opacity:1" fill="currentColor" d="M -0.5,258.5 C 0.166667,258.5 0.833333,258.5 1.5,258.5C 1.5,261.5 1.5,264.5 1.5,267.5C 0.833333,267.5 0.166667,267.5 -0.5,267.5C -0.5,264.5 -0.5,261.5 -0.5,258.5 Z"/></g>
<g><path style="opacity:1" fill="currentColor" d="M 81.5,246.5 C 86.1645,252.819 92.1645,257.152 99.5,259.5C 98.8333,259.5 98.1667,259.5 97.5,259.5C 90.198,258.207 84.8647,254.207 81.5,247.5C 81.5,247.167 81.5,246.833 81.5,246.5 Z"/></g>
<g><path style="opacity:1" fill="currentColor" d="M 124.5,257.5 C 121.811,259.117 118.811,260.117 115.5,260.5C 114.5,260.5 113.5,260.5 112.5,260.5C 116.264,259.008 120.264,258.008 124.5,257.5 Z"/></g>
<g><path style="opacity:1" fill="currentColor" d="M 97.5,259.5 C 98.1667,259.5 98.8333,259.5 99.5,259.5C 103.81,260.08 108.143,260.414 112.5,260.5C 113.5,260.5 114.5,260.5 115.5,260.5C 110.015,261.652 104.349,261.818 98.5,261C 97.944,260.617 97.6107,260.117 97.5,259.5 Z"/></g>
<g><path style="opacity:1" fill="currentColor" d="M 70.5,262.5 C 72.5,262.5 73.5,263.5 73.5,265.5C 72.1667,264.833 71.1667,263.833 70.5,262.5 Z"/></g>
<g><path style="opacity:1" fill="currentColor" d="M 73.5,265.5 C 76.0892,266.419 78.0892,268.086 79.5,270.5C 76.9108,269.581 74.9108,267.914 73.5,265.5 Z"/></g>
<g><path style="opacity:1" fill="currentColor" d="M 194.5,266.5 C 196.749,267.08 198.415,268.413 199.5,270.5C 197.251,269.92 195.585,268.587 194.5,266.5 Z"/></g>
<g><path style="opacity:1" fill="currentColor" d="M -0.5,267.5 C 0.166667,267.5 0.833333,267.5 1.5,267.5C 2.16667,270.833 2.83333,274.167 3.5,277.5C 3.16667,277.5 2.83333,277.5 2.5,277.5C 1.3485,275.221 0.348502,272.888 -0.5,270.5C -0.5,269.5 -0.5,268.5 -0.5,267.5 Z"/></g>
<g><path style="opacity:1" fill="currentColor" d="M 199.5,270.5 C 201.674,270.75 203.341,271.75 204.5,273.5C 202.326,273.25 200.659,272.25 199.5,270.5 Z"/></g>
<g><path style="opacity:1" fill="currentColor" d="M 262.5,265.5 C 256.867,271.819 249.867,275.819 241.5,277.5C 248.429,273.615 255.429,269.615 262.5,265.5 Z"/></g>
<g><path style="opacity:1" fill="currentColor" d="M 79.5,270.5 C 83.8837,272.592 88.2171,274.592 92.5,276.5C 87.2838,276.254 82.9505,274.254 79.5,270.5 Z"/></g>
<g><path style="opacity:1" fill="currentColor" d="M 131.5,272.5 C 131.027,273.906 130.027,274.573 128.5,274.5C 128.973,273.094 129.973,272.427 131.5,272.5 Z"/></g>
<g><path style="opacity:1" fill="currentColor" d="M 124.5,275.5 C 124.5,275.833 124.5,276.167 124.5,276.5C 124.158,277.338 123.492,277.672 122.5,277.5C 121.833,277.5 121.167,277.5 120.5,277.5C 121.183,275.824 122.517,275.157 124.5,275.5 Z"/></g>
<g><path style="opacity:1" fill="currentColor" d="M 136.5,271.5 C 133.276,274.772 129.276,276.439 124.5,276.5C 124.5,276.167 124.5,275.833 124.5,275.5C 125.959,275.567 127.292,275.234 128.5,274.5C 130.027,274.573 131.027,273.906 131.5,272.5C 133.117,271.962 134.784,271.629 136.5,271.5 Z"/></g>
<g><path style="opacity:1" fill="currentColor" d="M 204.5,273.5 C 207.486,273.903 210.152,274.903 212.5,276.5C 209.284,276.655 206.617,275.655 204.5,273.5 Z"/></g>
<g><path style="opacity:1" fill="currentColor" d="M 334.5,268.5 C 334.833,268.5 335.167,268.5 335.5,268.5C 335.5,270.833 335.5,273.167 335.5,275.5C 333.984,279.222 332.317,282.889 330.5,286.5C 330.629,284.784 330.962,283.117 331.5,281.5C 332.391,277.165 333.391,272.832 334.5,268.5 Z"/></g>
<g><path style="opacity:1" fill="currentColor" d="M 317.5,271.5 C 316.412,275.969 315.079,280.302 313.5,284.5C 312.833,284.833 312.167,285.167 311.5,285.5C 313.378,280.693 315.378,276.026 317.5,271.5 Z"/></g>
<g><path style="opacity:1" fill="currentColor" d="M 92.5,276.5 C 94.8056,276.993 97.139,277.326 99.5,277.5C 99.5,277.833 99.5,278.167 99.5,278.5C 96.7718,278.829 94.4385,278.163 92.5,276.5 Z"/></g>
<g><path style="opacity:1" fill="currentColor" d="M 212.5,276.5 C 219.131,277.331 225.798,277.664 232.5,277.5C 228.366,278.485 224.032,278.818 219.5,278.5C 216.772,278.829 214.438,278.163 212.5,276.5 Z"/></g>
<g><path style="opacity:1" fill="currentColor" d="M 18.5,271.5 C 20.6223,276.026 22.6223,280.693 24.5,285.5C 20.7055,281.725 18.7055,277.058 18.5,271.5 Z"/></g>
<g><path style="opacity:1" fill="currentColor" d="M 99.5,277.5 C 106.5,277.5 113.5,277.5 120.5,277.5C 121.167,277.5 121.833,277.5 122.5,277.5C 117.912,278.928 113.079,279.595 108,279.5C 104.979,279.498 102.146,279.164 99.5,278.5C 99.5,278.167 99.5,277.833 99.5,277.5 Z"/></g>
<g><path style="opacity:1" fill="currentColor" d="M 232.5,277.5 C 235.5,277.5 238.5,277.5 241.5,277.5C 237.258,278.968 232.758,279.634 228,279.5C 224.979,279.498 222.146,279.164 219.5,278.5C 224.032,278.818 228.366,278.485 232.5,277.5 Z"/></g>
<g><path style="opacity:1" fill="currentColor" d="M 331.5,281.5 C 330.962,283.117 330.629,284.784 330.5,286.5C 330.167,286.5 329.833,286.5 329.5,286.5C 329.12,284.302 329.787,282.635 331.5,281.5 Z"/></g>
<g><path style="opacity:1" fill="currentColor" d="M 2.5,277.5 C 2.83333,277.5 3.16667,277.5 3.5,277.5C 3.83333,278.833 4.16667,280.167 4.5,281.5C 5.038,283.117 5.37133,284.784 5.5,286.5C 3.52751,283.916 2.52751,280.916 2.5,277.5 Z"/></g>
<g><path style="opacity:1" fill="currentColor" d="M 24.5,285.5 C 26.2503,286.659 27.2503,288.326 27.5,290.5C 26.8333,290.167 26.1667,289.833 25.5,289.5C 25.1667,288.167 24.8333,286.833 24.5,285.5 Z"/></g>
<g><path style="opacity:1" fill="currentColor" d="M 313.5,284.5 C 313.245,286.967 312.245,288.967 310.5,290.5C 310.833,289.167 311.167,287.833 311.5,286.5C 311.5,286.167 311.5,285.833 311.5,285.5C 312.167,285.167 312.833,284.833 313.5,284.5 Z"/></g>
<g><path style="opacity:1" fill="currentColor" d="M 4.5,281.5 C 6.34379,286.495 8.51046,291.495 11,296.5C 14.6071,302.068 18.4404,307.402 22.5,312.5C 14.469,305.452 8.80237,296.785 5.5,286.5C 5.37133,284.784 5.038,283.117 4.5,281.5 Z"/></g>
<g><path style="opacity:1" fill="currentColor" d="M 25.5,289.5 C 26.1667,289.833 26.8333,290.167 27.5,290.5C 27.5,291.167 27.5,291.833 27.5,292.5C 26.0937,292.027 25.427,291.027 25.5,289.5 Z"/></g>
<g><path style="opacity:1" fill="currentColor" d="M 329.5,286.5 C 329.833,286.5 330.167,286.5 330.5,286.5C 328.959,292.143 326.292,297.143 322.5,301.5C 324.633,296.447 326.967,291.447 329.5,286.5 Z"/></g>
<g><path style="opacity:1" fill="currentColor" d="M 27.5,290.5 C 28.9063,290.973 29.573,291.973 29.5,293.5C 28.8333,293.167 28.1667,292.833 27.5,292.5C 27.5,291.833 27.5,291.167 27.5,290.5 Z"/></g>
<g><path style="opacity:1" fill="currentColor" d="M 29.5,293.5 C 34.1752,298.209 38.8419,302.876 43.5,307.5C 41.2009,306.222 38.8676,304.889 36.5,303.5C 34.1162,300.131 31.7829,296.797 29.5,293.5 Z"/></g>
<g><path style="opacity:1" fill="currentColor" d="M 322.5,301.5 C 318.964,307.447 314.631,312.78 309.5,317.5C 307.055,319.629 304.389,321.296 301.5,322.5C 308.833,315.833 315.833,308.833 322.5,301.5 Z"/></g>
<g><path style="opacity:1" fill="currentColor" d="M 311.5,286.5 C 311.167,287.833 310.833,289.167 310.5,290.5C 301.163,304.678 288.163,313.678 271.5,317.5C 288.519,311.983 301.853,301.649 311.5,286.5 Z"/></g>
<g><path style="opacity:1" fill="currentColor" d="M 22.5,312.5 C 25.7642,314.094 28.4309,316.427 30.5,319.5C 27.2358,317.906 24.5691,315.573 22.5,312.5 Z"/></g>
<g><path style="opacity:1" fill="currentColor" d="M 43.5,307.5 C 51.451,311.783 59.7843,315.116 68.5,317.5C 70.1667,318.167 71.8333,318.833 73.5,319.5C 63.2886,317.861 53.6219,314.527 44.5,309.5C 43.7025,309.043 43.3691,308.376 43.5,307.5 Z"/></g>
<g><path style="opacity:1" fill="currentColor" d="M 68.5,317.5 C 135.83,318.823 203.163,318.823 270.5,317.5C 270.389,318.117 270.056,318.617 269.5,319C 265.179,319.499 260.846,319.666 256.5,319.5C 196.833,319.5 137.167,319.5 77.5,319.5C 76.1667,319.5 74.8333,319.5 73.5,319.5C 71.8333,318.833 70.1667,318.167 68.5,317.5 Z"/></g>
<g><path style="opacity:1" fill="currentColor" d="M 30.5,319.5 C 32.0269,319.427 33.0269,320.094 33.5,321.5C 31.9731,321.573 30.9731,320.906 30.5,319.5 Z"/></g>
<g><path style="opacity:1" fill="currentColor" d="M 77.5,319.5 C 137.167,319.5 196.833,319.5 256.5,319.5C 227.174,320.833 197.508,321.5 167.5,321.5C 137.833,321.333 108.167,321.167 78.5,321C 77.944,320.617 77.6107,320.117 77.5,319.5 Z"/></g>
<g><path style="opacity:1" fill="currentColor" d="M 33.5,321.5 C 34.1667,321.5 34.8333,321.5 35.5,321.5C 36.1667,322.5 36.8333,323.5 37.5,324.5C 35.5956,324.262 34.2623,323.262 33.5,321.5 Z"/></g>
<g><path style="opacity:1" fill="currentColor" d="M 35.5,321.5 C 39.4247,322.579 42.758,324.579 45.5,327.5C 44.8333,327.5 44.1667,327.5 43.5,327.5C 42.5084,327.672 41.8417,327.338 41.5,326.5C 40.713,324.896 39.3797,324.229 37.5,324.5C 36.8333,323.5 36.1667,322.5 35.5,321.5 Z"/></g>
<g><path style="opacity:1" fill="currentColor" d="M 37.5,324.5 C 39.3797,324.229 40.713,324.896 41.5,326.5C 39.847,326.34 38.5137,325.674 37.5,324.5 Z"/></g>
<g><path style="opacity:1" fill="currentColor" d="M 301.5,322.5 C 300.426,323.885 299.093,325.051 297.5,326C 290.169,329.507 282.836,332.674 275.5,335.5C 271.167,335.5 266.833,335.5 262.5,335.5C 268.727,334.32 275.06,332.987 281.5,331.5C 288.133,328.289 294.799,325.289 301.5,322.5 Z"/></g>
<g><path style="opacity:1" fill="currentColor" d="M 43.5,327.5 C 44.1667,327.5 44.8333,327.5 45.5,327.5C 46.1667,328.167 46.8333,328.833 47.5,329.5C 45.6203,329.771 44.287,329.104 43.5,327.5 Z"/></g>
<g><path style="opacity:1" fill="currentColor" d="M 47.5,329.5 C 49.5273,329.338 51.5273,329.505 53.5,330C 54.056,330.383 54.3893,330.883 54.5,331.5C 52.8828,330.962 51.2161,330.629 49.5,330.5C 48.5084,330.672 47.8417,330.338 47.5,329.5 Z"/></g>
<g><path style="opacity:1" fill="currentColor" d="M 49.5,330.5 C 51.2161,330.629 52.8828,330.962 54.5,331.5C 59.1652,332.078 63.4985,333.411 67.5,335.5C 65.5,335.5 63.5,335.5 61.5,335.5C 57.3811,334.136 53.3811,332.469 49.5,330.5 Z"/></g>
</svg>
